<svg width="20" height="20" viewBox="0 0 20 20" fill="none" xmlns="http://www.w3.org/2000/svg">
<path d="M10.0001 0.666626C4.85359 0.666626 0.666748 4.85346 0.666748 9.99998C0.666748 15.1465 4.85359 19.3339 10.0001 19.3339C15.1466 19.3339 19.3335 15.1471 19.3335 9.99998C19.3335 4.85346 15.1466 0.666626 10.0001 0.666626ZM10.0001 17.8215C5.68801 17.8215 2.17918 14.3121 2.17918 9.99998C2.17918 5.68789 5.68742 2.17906 10.0001 2.17906C14.3128 2.17906 17.821 5.6873 17.821 9.99998C17.8204 14.3121 14.3122 17.8215 10.0001 17.8215Z" fill="#61646E"/>
<path d="M9.99983 4.25305C6.83089 4.25305 4.25293 6.83102 4.25293 9.99996C4.25293 13.1689 6.83089 15.7469 9.99983 15.7469C13.1688 15.7469 15.7461 13.1683 15.7461 9.99996C15.7467 6.8316 13.1682 4.25305 9.99983 4.25305ZM9.99983 14.2338C7.66473 14.2338 5.76537 12.3351 5.76537 9.99937C5.76537 7.66427 7.66532 5.7649 9.99983 5.7649C12.3343 5.7649 14.2337 7.66427 14.2337 9.99937C14.2337 12.3351 12.3343 14.2338 9.99983 14.2338Z" fill="#61646E"/>
<path d="M10.0002 12.2245C11.2288 12.2245 12.2247 11.2285 12.2247 9.99994C12.2247 8.77136 11.2288 7.77539 10.0002 7.77539C8.7716 7.77539 7.77563 8.77136 7.77563 9.99994C7.77563 11.2285 8.7716 12.2245 10.0002 12.2245Z" fill="#61646E"/>
</svg>
