<svg width="22" height="17" viewBox="0 0 22 17" fill="none" xmlns="http://www.w3.org/2000/svg">
<path d="M20.9149 16.874C21.1123 16.872 21.3003 16.792 21.4363 16.648C21.5716 16.5047 21.6436 16.312 21.6336 16.1153L20.9563 2.62467C20.9169 2.51067 20.8403 2.38133 20.7323 2.29333C19.2649 1.10133 17.6436 0.5 15.9143 0.5C13.5196 0.5 11.6563 1.66867 11.0883 2.06933C10.5196 1.66933 8.6556 0.503333 6.2616 0.503333C4.53227 0.503333 2.90894 1.09933 1.4436 2.294C1.2056 2.488 1.19027 2.79933 1.1896 2.82467L0.369604 16.1753C0.356938 16.376 0.428271 16.5713 0.565604 16.716C0.702271 16.8607 0.893604 16.9427 1.09294 16.942C4.42827 16.9313 17.6063 16.8847 20.9149 16.874ZM10.1929 15.3627C8.8296 14.822 7.61027 14.548 6.31827 14.548C4.72094 14.548 3.37494 14.9667 2.57894 15.35V3.17133C3.7156 2.31533 4.98227 1.88133 6.29027 1.88133C8.10494 1.88133 9.5116 2.72 10.1929 3.09933V15.3627ZM19.6256 15.3507C18.7183 14.9673 17.4836 14.5487 15.8876 14.5487C14.5956 14.5487 13.2623 14.8227 12.0129 15.3633V3.09933C12.5823 2.72 14.1009 1.88133 15.9156 1.88133C17.2229 1.88133 18.4889 2.31533 19.6256 3.17133V15.3507Z" fill="#61646E"/>
</svg>
