<svg width="20" height="20" viewBox="0 0 20 20" fill="none" xmlns="http://www.w3.org/2000/svg">
<path fill-rule="evenodd" clip-rule="evenodd" d="M16.3602 17.369L15.5933 12.7081C15.5925 12.7029 15.5942 12.6981 15.5972 12.6951L18.8458 9.39421C19.2877 8.9452 19.4438 8.28487 19.2534 7.674C19.0629 7.06295 18.5637 6.62348 17.9519 6.53083L13.4622 5.85077C13.4592 5.85032 13.4558 5.84823 13.4538 5.84395L11.446 1.60323C11.1731 1.0268 10.6182 0.666626 9.99984 0.666626C9.38145 0.666626 8.82655 1.02681 8.55367 1.60323L6.54594 5.84387C6.54386 5.84824 6.5404 5.85036 6.53733 5.85083L2.04786 6.53083C1.43598 6.62347 0.936839 7.06294 0.746322 7.67397C0.555844 8.28486 0.711968 8.94522 1.1539 9.39422L4.40255 12.6952C4.40553 12.6982 4.40718 12.7031 4.40636 12.708L3.63944 17.3691C3.53533 18.002 3.78078 18.6322 4.28027 19.0106C4.78004 19.3892 5.43267 19.4383 5.9796 19.1386L9.99518 16.938C9.99817 16.9363 10.0015 16.9363 10.0046 16.938L14.0202 19.1386C14.2573 19.2686 14.5151 19.3333 14.7724 19.3333C15.1066 19.3333 15.4377 19.224 15.7194 19.0105C16.2189 18.6322 16.4644 18.0019 16.3602 17.369ZM14.7476 17.7141C14.7476 17.7141 14.7476 17.7141 14.7476 17.7141C14.7544 17.7179 14.7596 17.7196 14.7631 17.7206C14.7668 17.7215 14.7697 17.7218 14.7722 17.7218C14.7754 17.7218 14.7791 17.7213 14.7831 17.7199C14.7869 17.7187 14.7929 17.716 14.8009 17.71C14.8144 17.6997 14.8208 17.6896 14.824 17.6813C14.8272 17.673 14.8301 17.66 14.8268 17.6399L14.0599 12.9789C13.9727 12.4481 14.1449 11.9165 14.5033 11.5493L14.5079 11.5446L17.7566 8.24372C17.7566 8.24372 17.7566 8.24372 17.7566 8.24372C17.769 8.23108 17.7738 8.21997 17.7759 8.2109C17.7781 8.20175 17.7791 8.18833 17.7731 8.16912C17.7671 8.15011 17.7593 8.14128 17.7543 8.13688C17.7494 8.13259 17.7418 8.12766 17.7269 8.12539L13.2377 7.44541C13.2375 7.44538 13.2379 7.44544 13.2377 7.44541C12.7296 7.36845 12.2861 7.03708 12.0572 6.55361C12.0572 6.55355 12.0572 6.55366 12.0572 6.55361L10.0494 2.31289C10.0411 2.29538 10.0325 2.28823 10.0275 2.28499C10.0227 2.28184 10.0149 2.27814 9.99984 2.27814C9.98483 2.27814 9.97701 2.28184 9.97215 2.28499C9.96714 2.28823 9.9586 2.2953 9.95032 2.31281L7.94166 6.5554C7.71172 7.03946 7.26837 7.36863 6.76271 7.44534L2.2729 8.12538C2.25796 8.12765 2.25028 8.13259 2.24542 8.13686C2.24041 8.14126 2.23255 8.15014 2.22657 8.16931C2.22061 8.18844 2.22157 8.20177 2.22372 8.21087C2.22586 8.2199 2.23062 8.23101 2.24309 8.24368L5.49552 11.5485L5.49923 11.5523C5.86195 11.9258 6.02544 12.4583 5.9398 12.9788C5.93979 12.9789 5.93981 12.9788 5.9398 12.9788L5.17289 17.6398C5.17289 17.6398 5.1729 17.6398 5.17289 17.6398C5.16959 17.66 5.17247 17.6731 5.17572 17.6814C5.17892 17.6897 5.1848 17.6994 5.19835 17.7096C5.21166 17.7197 5.22054 17.7213 5.22507 17.7217C5.22959 17.722 5.23815 17.7218 5.25222 17.7141C5.25224 17.7141 5.25219 17.7142 5.25222 17.7141L9.26781 15.5135C9.72431 15.2633 10.2715 15.2619 10.7303 15.5126L10.732 15.5135L14.7476 17.7141Z" fill="#61646E"/>
</svg>
