<svg width="24" height="24" viewBox="0 0 24 24" fill="none" xmlns="http://www.w3.org/2000/svg">
<g opacity="0.6">
<path fill-rule="evenodd" clip-rule="evenodd" d="M8 7C8 4.79086 9.79086 3 12 3C14.2091 3 16 4.79086 16 7C16 9.20914 14.2091 11 12 11C9.79086 11 8 9.20914 8 7ZM12 5C10.8954 5 10 5.89543 10 7C10 8.10457 10.8954 9 12 9C13.1046 9 14 8.10457 14 7C14 5.89543 13.1046 5 12 5Z" fill="#4D4F66"/>
<path d="M18.5262 15.4738C17.1507 14.6494 15.0832 14 12 14C8.32959 14 6.09862 14.9203 4.76106 15.9606C4.09728 16.4769 3.79171 16.7468 3.41536 17.4268C3.19773 17.82 3 18.2 3 18.5V21H13L15 19H5V18.6901C5.02542 18.6367 5.06297 18.565 5.11589 18.4795C5.2617 18.2439 5.52772 17.8981 5.98894 17.5394C6.90138 16.8297 8.67041 16 12 16C14.4162 16 16.0106 16.4369 17.0522 16.9478L18.5262 15.4738Z" fill="#4D4F66"/>
<path d="M15 22V24H17L23.7678 17.2322C23.963 17.037 23.963 16.7204 23.7678 16.5251L22.4749 15.2322C22.2796 15.037 21.963 15.037 21.7678 15.2322L15 22Z" fill="#4D4F66"/>
</g>
</svg>
