<svg width="24" height="24" viewBox="0 0 24 24" fill="none" xmlns="http://www.w3.org/2000/svg">
<g opacity="0.6">
<path d="M13.2931 10.2202L12 7L10.7069 10.2202L7.24472 10.4549L9.90768 12.6798L9.06107 16.0451L12 14.2L14.9389 16.0451L14.0923 12.6798L16.7553 10.4549L13.2931 10.2202Z" fill="#4D4F66"/>
<path fill-rule="evenodd" clip-rule="evenodd" d="M4 4C2.89543 4 2 4.89543 2 6V9.87788L2.66675 10.1135C3.4449 10.3886 4 11.1307 4 12C4 12.8693 3.4449 13.6114 2.66675 13.8865L2 14.1221V18C2 19.1046 2.89543 20 4 20H20C21.1046 20 22 19.1046 22 18V14.1221L21.3332 13.8865C20.5551 13.6114 20 12.8693 20 12C20 11.1308 20.5551 10.3886 21.3332 10.1135L22 9.87788V6C22 4.89543 21.1046 4 20 4H4ZM4 6L20 6V8.53543C18.8052 9.22657 18 10.5183 18 12C18 13.4817 18.8052 14.7734 20 15.4646V18H4V15.4646C5.1948 14.7734 6 13.4817 6 12C6 10.5183 5.1948 9.22657 4 8.53543V6Z" fill="#4D4F66"/>
</g>
</svg>
