<svg width="24" height="24" viewBox="0 0 24 24" fill="none" xmlns="http://www.w3.org/2000/svg">
<g opacity="0.6">
<path d="M6.9855 3.1913L5.24448 6.09301L7.07574 7.92426L7.92426 7.07574L6.75552 5.90699L8.0145 3.8087L6.9855 3.1913Z" fill="#4D4F66"/>
<path fill-rule="evenodd" clip-rule="evenodd" d="M6 12C9.31371 12 12 9.31371 12 6C12 2.68629 9.31371 0 6 0C2.68629 0 0 2.68629 0 6C0 9.31371 2.68629 12 6 12ZM6 10C8.20914 10 10 8.20914 10 6C10 3.79086 8.20914 2 6 2C3.79086 2 2 3.79086 2 6C2 8.20914 3.79086 10 6 10Z" fill="#4D4F66"/>
<path d="M14 6H19V8H13.748C13.5653 8.70954 13.2878 9.38099 12.9297 10H19V20H5V13.9381C4.30136 13.851 3.6307 13.6738 3 13.4185V20C3 21.1046 3.89543 22 5 22H19C20.1046 22 21 21.1046 21 20V6C21 4.89543 20.1046 4 19 4H18V2H16V4H13.748C13.9125 4.63924 14 5.3094 14 6Z" fill="#4D4F66"/>
</g>
</svg>
