<svg width="266" height="176" viewBox="0 0 266 176" fill="none" xmlns="http://www.w3.org/2000/svg">
<g clip-path="url(#clip0)">
<path d="M181.635 175.624H69.323C65.6399 175.624 62.1077 174.162 59.5034 171.559C56.8991 168.956 55.436 165.426 55.436 161.745V110.321C55.436 109.574 55.5883 108.835 55.8834 108.149C56.1786 107.463 56.6105 106.844 57.1528 106.33L116.667 49.9499C119.047 47.6957 122.2 46.4392 125.479 46.4392C128.758 46.4392 131.912 47.6957 134.291 49.9499L191.035 103.706C192.452 105.048 193.581 106.666 194.353 108.459C195.124 110.252 195.522 112.184 195.522 114.136V161.745C195.522 163.568 195.163 165.372 194.465 167.056C193.767 168.74 192.744 170.27 191.455 171.559C190.165 172.848 188.634 173.87 186.95 174.567C185.265 175.265 183.459 175.624 181.635 175.624Z" fill="#F2F3FA"/>
<path opacity="0.1" d="M55.436 111.165H194.355V167.244C194.355 169.466 193.471 171.598 191.899 173.169C190.326 174.741 188.193 175.624 185.969 175.624H63.8214C61.5975 175.624 59.4646 174.741 57.8921 173.169C56.3195 171.598 55.436 169.466 55.436 167.244V111.165Z" fill="black"/>
<path d="M169.349 66.9773H81.3171C77.0972 66.9773 73.6763 70.3961 73.6763 74.6135V162.592C73.6763 166.809 77.0972 170.228 81.3171 170.228H169.349C173.569 170.228 176.99 166.809 176.99 162.592V74.6135C176.99 70.3961 173.569 66.9773 169.349 66.9773Z" fill="#FFCB24"/>
<path opacity="0.1" d="M176.99 113.484V170.228H73.6763V113.484L125.333 138.436L176.99 113.484Z" fill="black"/>
<path d="M125.333 141.645L59.1442 109.673C58.7348 109.475 58.2819 109.384 57.8279 109.409C57.3738 109.434 56.9336 109.574 56.5484 109.816C56.1632 110.057 55.8457 110.392 55.6256 110.79C55.4055 111.188 55.29 111.635 55.29 112.089V167.098C55.29 168.198 55.5069 169.288 55.9283 170.305C56.3497 171.322 56.9674 172.245 57.7461 173.024C58.5247 173.802 59.4491 174.419 60.4665 174.84C61.4839 175.261 62.5743 175.478 63.6755 175.478H186.991C188.092 175.478 189.182 175.261 190.2 174.84C191.217 174.419 192.142 173.802 192.92 173.024C193.699 172.245 194.317 171.322 194.738 170.305C195.159 169.288 195.376 168.198 195.376 167.098V113.032C195.376 112.477 195.235 111.932 194.967 111.446C194.698 110.961 194.311 110.552 193.841 110.257C193.371 109.962 192.833 109.792 192.279 109.761C191.725 109.731 191.173 109.841 190.673 110.083L125.333 141.645Z" fill="#F2F3FA"/>
<path d="M111.47 76.4565H82.5776V80.5399H111.47V76.4565Z" fill="#F2F2F2"/>
<path d="M166.046 91.3315H80.2432V93.6649H166.046V91.3315Z" fill="#F2F2F2"/>
<path d="M166.046 99.2068H80.2432V101.54H166.046V99.2068Z" fill="#F2F2F2"/>
<path d="M166.046 107.082H80.2432V109.415H166.046V107.082Z" fill="#F2F2F2"/>
<path d="M2.90332 175.478H243.385" stroke="#3F3D56" stroke-miterlimit="10"/>
<path d="M195.16 45.4751C194.985 47.0369 193.793 48.2949 193.351 49.8032C192.686 52.0734 193.836 54.5096 195.408 56.2776C196.677 57.6892 198.213 58.8351 199.928 59.6489C201.643 60.4628 203.503 60.9283 205.399 61.0186C205.956 61.0675 206.517 61.0064 207.051 60.8387C207.527 60.6471 207.956 60.3542 208.308 59.9803C209.492 58.7921 210.127 57.1457 210.381 55.4879C210.634 53.8302 210.535 52.1413 210.436 50.4672C210.437 50.1212 210.374 49.778 210.251 49.4546C210.089 49.1465 209.868 48.874 209.599 48.6533C208.746 47.8717 207.807 47.19 206.8 46.6214C206.345 46.4175 205.943 46.1104 205.627 45.7245C205.437 45.394 205.314 45.0291 205.265 44.6508L204.955 43.0761C204.9 42.6223 204.745 42.1864 204.501 41.7997C203.955 41.0633 202.91 40.9631 201.994 40.9271L198.636 40.7955C197.592 40.7545 196.215 40.4552 195.196 40.6602C194.244 40.8516 194.56 41.7285 194.733 42.5269C194.984 43.4909 195.127 44.4796 195.16 45.4751Z" fill="#FBB3B2"/>
<path opacity="0.1" d="M195.16 45.4751C194.985 47.0369 193.793 48.2949 193.351 49.8032C192.686 52.0734 193.836 54.5096 195.408 56.2776C196.677 57.6892 198.213 58.8351 199.928 59.6489C201.643 60.4628 203.503 60.9283 205.399 61.0186C205.956 61.0675 206.517 61.0064 207.051 60.8387C207.527 60.6471 207.956 60.3542 208.308 59.9803C209.492 58.7921 210.127 57.1457 210.381 55.4879C210.634 53.8302 210.535 52.1413 210.436 50.4672C210.437 50.1212 210.374 49.778 210.251 49.4546C210.089 49.1465 209.868 48.874 209.599 48.6533C208.746 47.8717 207.807 47.19 206.8 46.6214C206.345 46.4175 205.943 46.1104 205.627 45.7245C205.437 45.394 205.314 45.0291 205.265 44.6508L204.955 43.0761C204.9 42.6223 204.745 42.1864 204.501 41.7997C203.955 41.0633 202.91 40.9631 201.994 40.9271L198.636 40.7955C197.592 40.7545 196.215 40.4552 195.196 40.6602C194.244 40.8516 194.56 41.7285 194.733 42.5269C194.984 43.4909 195.127 44.4796 195.16 45.4751Z" fill="black"/>
<path d="M216.52 115.77C216.044 120.983 215.568 126.195 215.093 131.406C214.72 135.507 214.341 139.625 213.61 143.673C213.358 145.068 213.062 146.456 212.712 147.832C211.736 151.652 210.321 155.386 209.865 159.302C209.85 159.415 209.838 159.53 209.826 159.645C209.775 160.511 209.611 161.367 209.338 162.191C209.11 162.788 208.759 163.333 208.512 163.924C208.019 165.105 207.955 166.412 207.895 167.691C206.162 166.718 204.265 166.07 202.299 165.78C201.35 165.638 200.293 165.538 199.647 164.829C198.931 164.047 199.01 162.848 199.13 161.797C199.507 158.531 199.884 155.267 200.259 152.005C200.382 150.602 200.62 149.211 200.973 147.846C201.103 147.393 201.259 146.946 201.417 146.499C201.636 145.885 201.857 145.27 202.023 144.639C202.262 143.618 202.429 142.582 202.522 141.539C202.909 138.254 203.375 134.977 203.784 131.694L203.805 131.521C204.418 126.546 204.884 121.547 204.75 116.536C204.73 115.794 204.699 115.052 204.651 114.308C204.584 113.23 204.485 112.659 205.379 111.984C206.366 111.24 207.666 110.718 208.795 110.231C209.403 109.967 216.097 107.592 216.253 108.113C216.567 109.225 216.732 110.373 216.743 111.528C216.748 112.945 216.673 114.361 216.52 115.77Z" fill="#605D82"/>
<path opacity="0.1" d="M213.61 143.673C213.358 145.068 213.062 146.456 212.711 147.832C211.736 151.652 210.321 155.386 209.864 159.302C209.85 159.415 209.838 159.53 209.826 159.645C206.842 155.386 204.329 150.805 201.417 146.499C201.636 145.885 201.857 145.27 202.022 144.639C202.261 143.618 202.428 142.582 202.522 141.539C202.909 138.254 203.375 134.977 203.783 131.694L203.805 131.521C203.976 132.218 204.22 132.895 204.533 133.541C206.489 137.512 211.135 139.52 213.408 143.32C213.478 143.438 213.545 143.556 213.61 143.673Z" fill="black"/>
<path d="M189.397 108.752C189.495 111.937 190.006 115.094 190.515 118.24L191.565 124.73C192.14 128.283 192.739 131.908 194.421 135.089C195.679 137.469 197.492 139.5 199.132 141.636C203.164 146.885 206.193 152.832 210.016 158.235C211.128 159.806 212.716 161.504 214.613 161.176C215.857 160.961 216.761 159.926 217.74 159.127C218.893 158.186 220.284 157.497 221.191 156.317C222.099 155.137 222.277 153.175 221.047 152.335C220.602 152.089 220.13 151.896 219.64 151.76C217.733 151.035 216.5 149.175 215.715 147.294C214.93 145.413 214.454 143.39 213.408 141.64C211.135 137.84 206.488 135.832 204.532 131.86C203.436 129.634 203.332 127.07 203.248 124.591L203.035 118.273C203.011 117.582 202.993 116.864 203.274 116.232C204.022 114.55 206.282 114.393 208.111 114.18C210.187 113.937 212.198 113.303 214.038 112.311C215.092 111.743 216.121 111.018 216.685 109.962C217.199 108.999 217.27 107.869 217.33 106.779L217.964 95.3284C218.018 94.3433 218.068 93.3247 217.721 92.4012C216.848 90.0823 213.918 89.3246 211.442 89.4352C206.834 89.6411 202.579 91.6222 198.234 92.9601C197.158 93.2993 196.066 93.5841 194.961 93.8134C193.986 94.009 192.805 93.9279 191.875 94.2412C190.221 94.7985 190.263 98.4134 190.029 99.9129C189.544 102.833 189.333 105.792 189.397 108.752Z" fill="#605D82"/>
<path d="M213.987 161.657C214.393 162.066 214.526 162.666 214.632 163.233C215.219 166.378 215.524 169.569 215.544 172.769C215.517 173.067 215.577 173.367 215.716 173.633C215.831 173.791 215.986 173.915 216.165 173.993C217.34 174.553 218.703 173.773 219.681 172.916C221.496 171.328 223.031 169.196 223.134 166.788C223.115 166.168 223.137 165.547 223.199 164.929C223.358 164.023 223.888 163.233 224.355 162.439C225.149 161.088 225.79 159.653 226.265 158.16C226.443 157.599 226.562 156.893 226.122 156.501C225.966 156.379 225.789 156.287 225.599 156.229L220.294 154.261C219.834 154.09 218.69 157.027 218.509 157.348C218.064 158.134 217.623 158.579 216.732 158.761C215.822 158.946 214.739 158.68 213.891 159.134C212.455 159.901 213.174 160.837 213.987 161.657Z" fill="#535070"/>
<path d="M205.801 163.469C205.702 163.273 205.565 163.099 205.397 162.957C205.152 162.802 204.872 162.707 204.583 162.681C203.573 162.509 202.375 162.397 201.678 163.147C201.025 163.85 201.137 164.996 200.591 165.786C200.418 166.035 200.183 166.241 200.033 166.506C199.847 166.91 199.763 167.353 199.789 167.798C199.761 169.021 199.733 170.247 199.817 171.468C199.888 172.491 200.061 173.563 200.701 174.365C201.728 175.651 203.582 175.836 205.227 175.92L206.559 175.988C206.926 176.032 207.298 175.998 207.651 175.887C207.869 175.787 208.065 175.643 208.227 175.465C208.389 175.287 208.513 175.079 208.593 174.852C209.286 173.129 208.188 171.273 207.512 169.544C206.734 167.556 206.874 165.348 205.801 163.469Z" fill="#535070"/>
<path d="M194.774 36.6753C194.757 36.5006 194.783 36.3246 194.848 36.1619C195.044 35.8171 195.553 35.9109 195.938 36.0078C197.483 36.3973 199.112 36.0447 200.704 36.1357C202.295 36.2267 204.088 37.0219 204.408 38.5827C205.564 37.7642 206.559 36.7416 207.347 35.5653C207.789 34.9046 208.174 34.1479 208.113 33.3557C208.027 32.2129 207.067 31.3583 206.179 30.6335L203.531 28.4732C203.184 28.1539 202.782 27.8989 202.345 27.7198C201.734 27.511 201.067 27.6105 200.421 27.6109C198.493 27.6121 196.438 26.7354 194.724 27.6161C194.008 27.984 193.469 28.6144 192.949 29.2292L190.586 32.0251C190.408 32.2032 190.278 32.4235 190.208 32.6653C190.141 33.0066 190.316 33.3434 190.377 33.6858C190.489 34.3104 190.22 34.977 190.427 35.5769C190.77 36.5726 191.98 36.7136 192.72 37.2845C192.995 37.4973 193.427 38.2183 193.756 38.2095C194.348 38.1936 194.758 37.1354 194.774 36.6753Z" fill="#3F3D56"/>
<path d="M198.784 44.9169C202.964 44.9169 206.352 41.5306 206.352 37.3535C206.352 33.1763 202.964 29.79 198.784 29.79C194.604 29.79 191.216 33.1763 191.216 37.3535C191.216 41.5306 194.604 44.9169 198.784 44.9169Z" fill="#FBB3B2"/>
<path d="M200.557 53.906C200.3 53.1709 199.815 52.5368 199.174 52.0954C198.532 51.654 197.766 51.4285 196.988 51.4514C196.765 51.4928 196.535 51.4637 196.329 51.3682C196.213 51.279 196.12 51.163 196.059 51.0301C195.598 50.2031 195.228 49.329 194.955 48.423C194.834 48.0227 194.669 47.5507 194.264 47.4466C194.096 47.4247 193.926 47.4487 193.771 47.5162C193.615 47.5836 193.481 47.692 193.383 47.8296C193.191 48.1066 192.98 48.3708 192.754 48.6204C191.802 49.471 190.114 48.6958 189.104 49.4761C188.939 49.6035 188.803 49.7668 188.63 49.8828C188.456 49.9871 188.269 50.0672 188.074 50.1209C186.123 50.7574 184.211 51.5059 182.346 52.3629C183.018 56.4074 183.707 60.5224 185.282 64.308C186.032 66.1096 186.881 67.874 187.481 69.7305C188.811 73.8441 188.87 78.2455 188.885 82.5685C188.895 85.5272 188.881 88.549 187.923 91.3486C187.665 91.9673 187.484 92.615 187.382 93.2774C187.324 93.9445 187.518 94.6801 188.059 95.0753C188.373 95.2803 188.732 95.4062 189.104 95.4422C190.764 95.6856 192.437 95.2442 194.071 94.8659C198.452 93.8522 202.919 93.2721 207.377 92.6935L214.849 91.724C215.384 91.6877 215.908 91.5523 216.394 91.3248C217.761 90.5767 217.891 88.5214 217.042 87.2151C216.635 86.5888 216.061 86.075 215.719 85.411C215.377 84.7471 215.348 83.8186 215.937 83.3587C217.134 82.4232 216.777 80.6876 216.834 79.1696C216.994 74.9251 216.972 70.679 216.769 66.4311C216.709 65.5518 216.695 64.67 216.727 63.7892C216.86 62.2967 217.136 60.8204 217.551 59.3807L219.821 50.4475C219.228 49.5109 218.093 48.9166 217.017 48.6469C215.941 48.3771 214.821 48.2977 213.762 47.9696C211.591 47.2975 209.659 45.5919 207.393 45.7509C207.221 45.754 207.053 45.7951 206.899 45.8713C206.388 46.1607 206.469 46.8969 206.436 47.4832C206.364 48.7802 205.409 49.8642 204.355 50.6242C203.301 51.3842 202.097 51.9384 201.129 52.8052C200.958 52.9344 200.817 53.1003 200.718 53.2908C200.619 53.4812 200.564 53.6914 200.557 53.906Z" fill="#3F3D56"/>
<path d="M170.57 62.3793C170.068 62.7048 169.534 62.979 168.978 63.1979C168.433 63.36 167.918 63.6098 167.453 63.9375C167.239 64.1226 167.059 64.3443 166.923 64.5922C166.666 65.0463 166.537 65.5607 166.547 66.0818C166.558 66.603 166.708 67.1117 166.983 67.5549C167.257 67.9981 167.646 68.3596 168.108 68.6016C168.57 68.8435 169.088 68.9572 169.609 68.9305C170.301 68.853 170.974 68.6525 171.596 68.3385L176.934 66.0269C177.837 65.6356 178.813 65.1771 179.24 64.2904C179.29 64.2077 179.308 64.1099 179.292 64.0148C179.249 63.9142 179.171 63.8324 179.073 63.7844C177.869 63.003 176.816 62.0107 175.965 60.8554C175.746 60.5582 175.478 59.8566 175.168 59.6784C174.038 59.0282 171.474 61.7928 170.57 62.3793Z" fill="#FBB3B2"/>
<path d="M227.633 60.4824L229.601 62.7291C230.024 63.2114 230.447 63.6943 230.832 64.2069C231.778 65.5095 232.536 66.9379 233.086 68.4505C233.514 69.5724 233.869 70.7673 233.719 71.9585C233.62 72.5691 233.455 73.1673 233.227 73.7425C232.866 74.8487 232.419 75.925 231.89 76.9612C231.444 77.7485 230.942 78.5018 230.385 79.2149C228.861 81.2331 227.194 83.139 225.396 84.9177C224.724 85.5833 224.441 86.6595 224.148 87.5593C223.608 89.2188 222.323 90.5113 221.08 91.737C220.68 92.1585 220.239 92.5382 219.762 92.8701C219.048 93.3297 218.214 93.5672 217.364 93.5526C216.993 93.5552 216.625 93.479 216.284 93.3291C215.434 92.9254 215.002 91.9424 214.913 91.0055C214.834 90.1553 214.976 89.2991 215.327 88.5203C216.456 86.0202 219.356 84.9369 221.406 83.1127C222.608 82.0431 223.527 80.6995 224.433 79.3705C225.049 78.5407 225.563 77.6401 225.965 76.6881C226.422 75.4674 226.244 74.0223 226.644 72.7814C226.813 72.2569 227.114 71.7833 227.296 71.263C227.477 70.7428 227.523 70.1252 227.205 69.675C226.965 69.3889 226.659 69.1652 226.314 69.0231C225.005 68.3589 223.538 67.5041 223.287 66.058C223.188 65.2561 223.397 64.4463 223.874 63.7934C224.349 63.1493 224.903 62.5681 225.525 62.0639C226.098 61.5578 227.061 60.9885 227.633 60.4824Z" fill="#FBB3B2"/>
<path d="M169.306 65.5154C168.958 64.8139 168.524 64.0982 167.823 63.7494C167.483 63.6019 167.116 63.525 166.746 63.5235C166.375 63.5219 166.008 63.5957 165.667 63.7404C164.987 64.0333 164.35 64.418 163.775 64.8837L162.079 66.1333C161.694 66.3855 161.354 66.6994 161.072 67.0624C160.804 67.5027 160.626 67.9914 160.547 68.5006C160.252 69.6618 160.161 70.8657 160.28 72.0579C160.55 73.9696 161.703 75.6386 162.972 77.0938C163.766 78.0031 164.745 78.9207 165.951 78.9595C166.472 78.9763 167.051 78.7711 167.268 78.2975C167.343 78.1098 167.383 77.9098 167.385 77.7077C167.516 75.5753 166.752 73.4926 165.862 71.5503C165.579 71.0417 165.411 70.4767 165.371 69.8957C165.365 69.7979 165.39 69.7007 165.444 69.6186C165.521 69.5388 165.623 69.4887 165.733 69.4773C166.952 69.2365 169.05 70.1823 169.905 68.8303C170.459 67.9538 169.7 66.3102 169.306 65.5154Z" fill="#FBB3B2"/>
<path d="M194.377 34.2954C194.361 34.1208 194.386 33.9447 194.452 33.782C194.647 33.4372 195.157 33.531 195.541 33.6279C197.087 34.0174 198.716 33.6648 200.307 33.7558C201.899 33.8468 203.692 34.642 204.012 36.2028C205.167 35.3843 206.163 34.3617 206.95 33.1854C207.392 32.5248 207.777 31.7681 207.717 30.9758C207.63 29.833 206.671 28.9784 205.782 28.2537L203.135 26.0933C202.787 25.7741 202.386 25.519 201.949 25.3399C201.337 25.1311 200.671 25.2306 200.024 25.231C198.097 25.2323 196.042 24.3556 194.327 25.2363C193.611 25.6041 193.072 26.2346 192.553 26.8493L190.189 29.6452C190.011 29.8234 189.881 30.0436 189.811 30.2854C189.744 30.6267 189.92 30.9635 189.981 31.3059C190.092 31.9305 189.823 32.5971 190.03 33.197C190.374 34.1928 191.584 34.3337 192.323 34.9046C192.599 35.1174 193.031 35.8385 193.359 35.8297C193.952 35.8138 194.362 34.7555 194.377 34.2954Z" fill="#3F3D56"/>
<path d="M178.303 55.0225C177.998 55.2195 177.729 55.469 177.511 55.7595C177.234 56.1788 177.177 56.7081 176.939 57.1507C176.429 58.0979 175.236 58.4349 174.492 59.212C174.373 59.3188 174.291 59.4597 174.256 59.6152C174.253 59.8261 174.324 60.0315 174.456 60.1955L178.045 65.8339C179.24 65.9391 180.386 65.1909 181.582 65.2902C182.028 65.3273 182.485 65.4814 182.913 65.3496C183.219 65.2138 183.506 65.0382 183.767 64.8275C184.48 64.3768 185.43 64.3243 186.028 63.7297C186.603 63.1591 186.676 62.2663 186.669 61.4571C186.679 60.7543 186.607 60.0528 186.456 59.3665C185.927 57.2022 184.271 55.5414 183.233 53.6243C182.727 52.6909 182.452 52.1445 181.382 52.7854C180.307 53.4296 179.315 54.2828 178.303 55.0225Z" fill="#3F3D56"/>
<path d="M221.887 52.1714C222.562 52.6091 223.17 53.1413 223.693 53.7518C224.24 54.4564 224.549 55.3186 225.074 56.0393C225.583 56.7378 226.276 57.2789 226.854 57.9221C227.73 58.8977 228.323 60.0878 228.905 61.262C227.482 63.1163 225.931 64.8684 224.263 66.5054C224.077 66.7241 223.833 66.8848 223.558 66.9685C223.371 66.9883 223.183 66.9616 223.009 66.8907C222.835 66.8199 222.681 66.7071 222.562 66.5625C222.303 66.2915 222.12 65.9574 221.873 65.676C221.29 65.0747 220.512 64.6991 219.679 64.6155C218.852 64.5357 218.021 64.5242 217.193 64.5813C217.011 64.6015 216.827 64.5706 216.662 64.4921C216.539 64.4074 216.44 64.2932 216.372 64.16C215.401 62.5077 215.713 60.4331 216.056 58.5473L216.843 54.2203C216.957 53.3939 217.177 52.5857 217.497 51.8155C217.795 51.1791 218.461 50.1 219.281 50.2905C220.106 50.4826 221.193 51.672 221.887 52.1714Z" fill="#3F3D56"/>
<path d="M77.9081 80.5834C84.5165 80.5834 89.8738 75.2197 89.8738 68.6032C89.8738 61.9868 84.5165 56.623 77.9081 56.623C71.2996 56.623 65.9424 61.9868 65.9424 68.6032C65.9424 75.2197 71.2996 80.5834 77.9081 80.5834Z" fill="white"/>
<path d="M77.9079 54.5813C75.0795 54.5813 72.3147 55.4195 69.963 56.9899C67.6113 58.5603 65.7784 60.7924 64.696 63.4038C63.6136 66.0153 63.3304 68.8889 63.8822 71.6613C64.434 74.4336 65.796 76.9801 67.7959 78.9789C69.7959 80.9776 72.344 82.3388 75.118 82.8902C77.892 83.4417 80.7674 83.1586 83.3804 82.0769C85.9935 80.9952 88.2269 79.1634 89.7983 76.8131C91.3696 74.4629 92.2084 71.6997 92.2084 68.8731C92.1973 65.0861 90.6871 61.4573 88.0076 58.7795C85.3281 56.1017 81.6972 54.5924 77.9079 54.5813ZM74.9722 76.493L67.6432 69.1685L69.6989 67.1141L74.9791 72.391L86.1238 61.2531L88.1795 63.3075L74.9722 76.4931L74.9722 76.493Z" fill="#14B524"/>
</g>
<defs>
<clipPath id="clip0">
<rect width="266" height="176" fill="white"/>
</clipPath>
</defs>
</svg>
